<svg xmlns="http://www.w3.org/2000/svg" width="1000" height="200" viewBox="0 0 1000 200" version="1.1"><path d="M 375.089 43.250 C 372.105 58.128, 356 148.196, 356 150.005 C 356 151.891, 356.492 152.078, 360.734 151.805 L 365.467 151.500 373.228 108 C 377.496 84.075, 382.048 58.538, 383.342 51.250 L 385.696 38 380.919 38 L 376.142 38 375.089 43.250 M 483.253 76.950 L 467.095 93.740 469.616 96.109 L 472.138 98.479 477.694 92.697 C 482.973 87.204, 483.342 87, 485.103 88.593 C 486.122 89.515, 488.043 92.453, 489.373 95.121 C 491.579 99.547, 491.843 99.763, 492.390 97.584 C 493.180 94.433, 492.166 89.408, 489.775 84.631 L 487.838 80.762 491.169 77.294 C 493.001 75.387, 495.754 72.923, 497.286 71.819 L 500.073 69.812 514.048 83.406 C 521.735 90.883, 528.398 97, 528.857 97 C 529.315 97, 530.518 96.086, 531.529 94.968 C 533.336 92.971, 533.274 92.840, 527.934 87.388 C 524.945 84.337, 517.305 76.963, 510.956 71 L 499.412 60.160 483.253 76.950 M 440.712 67.075 C 435.061 68.236, 425 72.516, 425 73.758 C 425 74.235, 426.330 75.900, 427.955 77.457 L 430.911 80.289 437.205 78.519 C 441.190 77.398, 446.855 76.759, 452.643 76.777 L 461.785 76.804 465.558 72.940 L 469.331 69.076 466.416 67.955 C 462.419 66.417, 446.554 65.874, 440.712 67.075 M 395.498 71.011 C 394.833 74.035, 395.237 74.614, 403.110 81.927 L 411.424 89.649 411.189 94.575 C 410.973 99.096, 411.076 99.345, 412.441 97.608 C 413.259 96.568, 414.114 95.218, 414.341 94.608 C 414.733 93.557, 424 101.683, 424 103.078 C 424 103.442, 421.975 104.307, 419.500 105 C 414.672 106.352, 414.098 107.346, 416.570 110.077 C 418.050 111.712, 418.611 111.591, 426.320 107.967 C 430.819 105.852, 434.500 103.956, 434.500 103.754 C 434.500 103.461, 413.408 83.641, 398.850 70.254 L 396.199 67.817 395.498 71.011 M 532.318 116.223 C 519.567 129.576, 507.302 142.282, 505.061 144.459 L 500.987 148.419 495.599 143.098 L 490.211 137.777 496.463 131.638 C 505.137 123.122, 507.272 118.608, 507.643 108 C 507.886 101.039, 507.767 100.180, 506.985 103.254 C 503.213 118.077, 488.898 130.590, 469.887 135.682 C 461.955 137.806, 442.820 138.059, 435 136.143 C 431.975 135.402, 425.801 133.035, 421.281 130.884 C 407.050 124.112, 398.503 113.626, 396.073 99.957 C 395.182 94.947, 395.123 95.304, 395.351 104.332 L 395.600 114.164 391.550 116.205 C 389.322 117.327, 387.348 118.380, 387.163 118.544 C 386.722 118.933, 385.128 126, 385.481 126 C 385.630 126, 388.295 124.875, 391.404 123.500 C 394.513 122.125, 397.434 121, 397.896 121 C 398.357 121, 399.864 122.688, 401.244 124.750 C 415.575 146.160, 447.448 154.432, 476.788 144.356 L 484.076 141.853 492.939 149.944 L 501.801 158.035 510.150 149.125 C 514.743 144.224, 526.963 131.423, 537.308 120.677 L 556.115 101.138 555.808 96.543 L 555.500 91.947 532.318 116.223 M 445 99.062 C 445 103.384, 445.326 103.865, 454.398 112.899 L 463.796 122.258 468.227 121.593 L 472.658 120.929 463.079 111.731 C 457.811 106.672, 451.587 100.745, 449.250 98.558 L 445 94.584 445 99.062" stroke="none" fill="#99999a" fill-rule="evenodd"/><path d="M 435.189 56.529 C 429.195 57.830, 415 63.677, 415 64.844 C 415 65.145, 417.082 67.224, 419.627 69.464 L 424.254 73.535 429.877 70.817 C 439.715 66.060, 457.727 64.665, 466.455 67.983 C 468.946 68.930, 469.511 68.631, 473.482 64.256 C 476.239 61.220, 477.385 59.271, 476.650 58.866 C 476.018 58.518, 472.261 57.505, 468.303 56.616 C 459.610 54.664, 443.968 54.623, 435.189 56.529 M 492.124 76.374 L 487.831 80.748 489.780 84.624 C 494.175 93.362, 493.057 101.562, 486.266 110.401 C 481.051 117.189, 474.615 120.534, 462.718 122.641 C 439.624 126.731, 419.227 118.733, 413.131 103.197 C 411.639 99.394, 410.916 95.842, 411.178 93.598 C 411.555 90.371, 411.064 89.511, 405.949 84.450 L 400.305 78.864 398.023 84.168 C 392.470 97.077, 397.756 114.182, 410.415 124.265 C 416.292 128.945, 427.075 134.146, 435 136.120 C 442.792 138.062, 461.897 137.822, 469.887 135.682 C 485.769 131.428, 499.326 121.350, 504.412 110.017 C 508.230 101.509, 508.864 92.237, 506.123 85 C 504.174 79.852, 498.745 72, 497.135 72 C 496.740 72, 494.485 73.968, 492.124 76.374" stroke="none" fill="#ffffff" fill-rule="evenodd"/><path d="M 488.421 48.750 C 483.017 54.663, 470.932 67.271, 461.566 76.769 L 444.537 94.038 458.018 106.968 C 465.433 114.079, 471.950 119.916, 472.500 119.939 C 474.345 120.017, 484.093 113.920, 484.715 112.300 C 485.150 111.168, 482.651 108.178, 476.191 102.099 L 467.053 93.500 483.305 76.770 L 499.557 60.039 516.438 76.280 L 533.319 92.520 520.577 105.510 C 513.568 112.655, 505.394 121.516, 502.412 125.203 C 499.430 128.890, 495.392 133.125, 493.439 134.615 L 489.887 137.323 495.160 142.662 C 498.059 145.598, 500.748 148, 501.135 148 C 502.046 148, 555 92.817, 555 91.868 C 555 90.958, 499.896 38, 498.948 38 C 498.562 38, 493.825 42.837, 488.421 48.750" stroke="none" fill="#0065b3" fill-rule="evenodd"/><path d="M 385.904 38.123 C 385.035 41.530, 365.448 151.615, 365.661 151.897 C 366.002 152.349, 406.017 135.069, 407.406 133.870 C 407.914 133.432, 406.814 131.415, 404.906 129.285 C 403.033 127.193, 400.785 124.383, 399.911 123.041 L 398.322 120.599 392.911 122.888 C 389.935 124.147, 387.030 125.374, 386.457 125.616 C 385.883 125.858, 387.552 115.355, 390.167 102.278 C 392.782 89.200, 394.971 76.925, 395.031 75 C 395.306 66.211, 394.082 65.395, 426.782 96.147 L 435.064 103.935 427.032 107.607 C 422.614 109.626, 419 111.581, 419 111.951 C 419 113.875, 431.598 121, 434.999 121 C 436.640 121, 452.039 114.730, 453.940 113.288 C 454.182 113.104, 452.269 110.811, 449.690 108.193 C 445.328 103.764, 445 103.072, 445 98.286 L 445 93.140 434.306 83.320 C 428.425 77.919, 417.287 67.379, 409.556 59.898 C 394.193 45.030, 386.053 37.537, 385.904 38.123" stroke="none" fill="#ed1c24" fill-rule="evenodd"/><path d="M 306.500 50.839 C 284.793 57.370, 267.186 75.253, 262.426 95.603 C 260.162 105.284, 260.830 119.755, 263.853 126.500 C 266.918 133.340, 274.013 140.275, 281.390 143.639 C 286.630 146.030, 289.067 146.479, 298.500 146.796 C 309.449 147.164, 323.141 145.259, 325.339 143.061 C 326.360 142.040, 332.241 115.908, 331.596 115.262 C 331.390 115.056, 328.519 115.588, 325.216 116.444 C 317.110 118.545, 307.420 118.459, 303.020 116.248 C 289.803 109.608, 293.394 88.570, 309.134 80.431 C 314.351 77.733, 320.552 77.147, 328.284 78.622 C 332.253 79.378, 335.993 79.998, 336.597 79.999 C 337.481 80, 350 55.416, 350 53.678 C 350 53.408, 347.863 52.408, 345.250 51.454 C 337.996 48.807, 314.495 48.434, 306.500 50.839 M 716.015 50.109 C 710.799 50.637, 706.219 51.391, 705.839 51.785 C 705.278 52.365, 684 142.719, 684 144.521 C 684 144.811, 691.509 144.925, 700.687 144.774 L 717.375 144.500 718.102 141.500 C 718.501 139.850, 720.058 133.120, 721.560 126.544 L 724.291 114.588 729.593 128.044 C 732.508 135.445, 735.101 142.287, 735.353 143.250 C 735.771 144.839, 737.562 145, 754.874 145 L 773.934 145 769.432 135.250 C 766.956 129.887, 762.989 122.141, 760.616 118.036 L 756.301 110.572 761.670 108.389 C 775.229 102.879, 783 91.424, 783 76.948 C 783 63.264, 776.645 55.300, 762.500 51.260 C 756.221 49.467, 729.012 48.793, 716.015 50.109 M 819.131 50.541 C 800.821 54.514, 787.602 66.136, 785.507 80.102 C 783.832 91.277, 789.814 99.048, 807 108.019 C 814.914 112.150, 817.577 114.039, 817.811 115.687 C 818.651 121.587, 806.214 122.930, 792.080 118.465 C 787.533 117.029, 783.685 115.999, 783.529 116.177 C 782.809 116.995, 775.957 142.291, 776.349 142.683 C 779.427 145.760, 809.244 148.142, 819.065 146.095 C 827.712 144.292, 836.501 139.630, 842.434 133.697 C 849.429 126.702, 852.179 121.180, 852.770 112.946 C 853.606 101.303, 848.220 94.641, 830.973 85.986 C 825.440 83.210, 820.647 80.242, 820.320 79.392 C 818.561 74.808, 828.631 72.720, 839.053 75.508 C 842.599 76.456, 846.400 77.433, 847.500 77.679 C 849.293 78.080, 849.850 76.813, 852.877 65.450 C 855.590 55.263, 855.993 52.614, 854.928 51.955 C 850.205 49.037, 829.782 48.230, 819.131 50.541 M 82 50.621 C 82 51.229, 63.772 137.311, 62.492 142.750 L 61.962 145 76.793 145 L 91.625 145 95.378 127.250 C 97.442 117.487, 99.820 106.427, 100.663 102.672 L 102.196 95.843 108.692 107.672 C 112.265 114.177, 118.565 125.237, 122.692 132.250 L 130.196 145 143.989 145 C 157.462 145, 157.796 144.948, 158.342 142.750 C 159.157 139.464, 178 50.953, 178 50.408 C 178 50.154, 171.365 50.071, 163.255 50.223 L 148.509 50.500 145.795 63 C 144.302 69.875, 142.070 81.179, 140.834 88.120 L 138.588 100.740 128.925 83.120 C 123.611 73.429, 117.271 62.125, 114.838 58 L 110.413 50.500 96.206 50.223 C 88.393 50.070, 82 50.249, 82 50.621 M 181.772 50.561 C 181.463 50.870, 186.201 66.108, 192.300 84.423 L 203.389 117.724 194.195 130.777 C 189.138 137.957, 185 144.094, 185 144.415 C 185 144.737, 192.376 145, 201.391 145 L 217.783 145 224.630 134.250 C 228.395 128.338, 242.673 107.534, 256.358 88.019 C 270.043 68.505, 281.459 51.967, 281.727 51.269 C 282.108 50.277, 278.815 50, 266.652 50 L 251.090 50 244.193 59.750 C 240.399 65.112, 234.569 73.747, 231.237 78.939 L 225.179 88.377 224.020 83.939 C 221.888 75.772, 218.904 65.570, 216.358 57.750 L 213.836 50 198.085 50 C 189.421 50, 182.081 50.253, 181.772 50.561 M 589.632 52.750 C 589.356 53.712, 584.581 74.300, 579.022 98.500 C 573.463 122.700, 568.723 143.063, 568.488 143.750 C 568.159 144.718, 571.974 145, 585.423 145 C 602.607 145, 602.788 144.977, 603.297 142.750 C 603.580 141.512, 605.242 134.313, 606.992 126.750 L 610.172 113 626.048 113 L 641.923 113 642.929 109.250 C 643.482 107.188, 644.783 101.900, 645.819 97.500 L 647.704 89.500 631.852 89.225 C 623.133 89.074, 616 88.546, 616 88.052 C 616 87.557, 616.525 84.879, 617.166 82.101 L 618.332 77.049 633.854 76.775 L 649.377 76.500 652.571 63.750 L 655.765 51 622.950 51 C 592.556 51, 590.098 51.129, 589.632 52.750 M 663 51.752 C 663 52.166, 658.275 72.871, 652.500 97.763 C 646.725 122.655, 642 143.467, 642 144.011 C 642 144.624, 648.436 145, 658.933 145 C 674.195 145, 675.916 144.827, 676.382 143.250 C 676.667 142.287, 680.949 123.950, 685.899 102.500 C 690.849 81.050, 695.557 60.688, 696.361 57.250 L 697.823 51 680.411 51 C 670.835 51, 663 51.338, 663 51.752 M 857.750 63.756 C 855.688 70.769, 854 77.067, 854 77.753 C 854 78.682, 857.183 79, 866.500 79 C 873.375 79, 879 79.241, 879 79.535 C 879 79.829, 875.625 94.258, 871.500 111.599 C 867.375 128.940, 864 143.549, 864 144.064 C 864 144.609, 871.097 145, 880.981 145 C 897.760 145, 897.969 144.973, 898.517 142.750 C 898.823 141.512, 902.345 126.775, 906.345 110 L 913.617 79.500 925.684 79.220 L 937.752 78.940 939.903 68.720 C 941.085 63.099, 942.325 56.813, 942.657 54.750 L 943.262 51 902.381 51.003 L 861.500 51.007 857.750 63.756 M 733.536 75.127 C 733.013 76.577, 729 93.750, 729 94.539 C 729 95.781, 736.951 94.777, 740.016 93.148 C 746.678 89.608, 750.044 81.178, 746.650 76.536 C 744.899 74.141, 734.303 73.003, 733.536 75.127 M 906.974 130.527 C 899.761 138.206, 910.013 149.497, 918.288 142.988 C 922.796 139.442, 922.699 132.823, 918.087 129.282 C 915.250 127.104, 909.595 127.738, 906.974 130.527 M 908.530 131.967 C 903.733 137.267, 910.097 145.815, 916 142 C 917.250 141.192, 917.167 141.010, 915.500 140.905 C 914.400 140.835, 912.487 140.861, 911.250 140.961 C 909.223 141.125, 909 140.697, 909 136.639 C 909 133.042, 909.395 132.009, 910.962 131.512 C 913.818 130.606, 917.158 132.728, 916.952 135.319 C 916.677 138.783, 916.932 140, 917.933 140 C 920.718 140, 919.682 132.823, 916.600 130.765 C 914.519 129.376, 910.307 130.003, 908.530 131.967" stroke="none" fill="#ffffff" fill-rule="evenodd"/></svg>